<?xml version="1.0" standalone="no"?>
<!DOCTYPE svg PUBLIC "-//W3C//DTD SVG 20010904//EN"
 "http://www.w3.org/TR/2001/REC-SVG-20010904/DTD/svg10.dtd">
<svg version="1.0" xmlns="http://www.w3.org/2000/svg"
 width="260.000000pt" height="260.000000pt" viewBox="0 0 260.000000 260.000000"
 preserveAspectRatio="xMidYMid meet">
<metadata>
Created by potrace 1.11, written by Peter Selinger 2001-2013
</metadata>
<g transform="translate(0.000000,260.000000) scale(0.100000,-0.100000)"
fill="#000000" stroke="none">
<path d="M0 1300 l0 -1300 1300 0 1300 0 0 1300 0 1300 -1300 0 -1300 0 0
-1300z m890 1063 c0 -5 -7 -17 -15 -27 -20 -26 -19 -76 1 -104 13 -19 22 -22
45 -17 33 7 36 -1 13 -33 -19 -28 -13 -60 21 -100 35 -41 33 -69 -5 -77 -16
-4 -34 -4 -40 0 -6 3 -19 3 -30 0 -17 -5 -20 -15 -20 -70 0 -48 5 -68 20 -86
l19 -24 50 27 c59 33 78 28 87 -18 9 -46 28 -64 70 -64 26 0 44 8 65 29 31 32
38 61 14 61 -23 0 -18 13 21 51 47 45 60 69 43 80 -11 6 -9 13 7 31 26 29 20
54 -17 73 -33 18 -37 32 -11 38 16 4 16 4 -1 12 -11 5 -24 2 -36 -9 -13 -12
-20 -13 -29 -4 -29 29 5 78 54 78 12 0 25 7 28 16 5 14 18 15 91 9 68 -5 91
-4 116 9 18 9 35 13 38 10 8 -8 -47 -54 -65 -54 -25 0 -16 -40 12 -50 21 -8
24 -13 14 -24 -9 -12 -8 -20 6 -41 18 -27 12 -47 -8 -27 -7 7 -20 12 -30 12
-30 0 -23 -54 12 -93 37 -43 37 -47 1 -47 l-28 0 8 -47 c18 -98 38 -119 105
-111 27 3 51 35 77 103 2 6 28 -2 57 -17 47 -25 56 -26 74 -14 17 11 22 26 24
85 l3 71 -40 0 c-22 0 -52 5 -66 10 -32 12 -27 38 16 88 33 38 35 53 13 87
-16 25 -16 25 18 25 28 0 37 5 46 25 17 36 15 90 -3 105 -21 18 -9 30 31 30
39 0 84 -36 84 -67 0 -10 -11 -45 -25 -78 -42 -102 -29 -130 20 -44 29 50 60
77 73 64 4 -4 -5 -29 -21 -56 -15 -27 -25 -49 -22 -49 2 0 53 32 113 70 60 39
114 70 120 70 20 0 24 -46 7 -79 -9 -18 -40 -51 -70 -74 -30 -23 -53 -43 -51
-44 2 -2 29 6 60 18 31 12 59 19 62 16 14 -14 -8 -39 -50 -56 -62 -27 -67 -41
-14 -41 53 0 116 28 177 78 25 22 58 47 73 56 34 22 96 37 103 25 11 -17 -39
-110 -80 -147 -48 -45 -149 -96 -224 -114 -28 -6 -51 -15 -51 -20 0 -4 25 -8
55 -8 30 0 55 -4 55 -8 0 -12 -46 -32 -72 -32 -16 0 -19 -3 -11 -11 14 -14
109 -16 271 -6 129 9 132 8 132 -12 0 -23 -48 -62 -100 -81 -20 -7 -106 -16
-200 -19 l-165 -6 58 -43 c31 -23 57 -47 57 -52 0 -17 -39 -11 -90 15 -57 29
-66 18 -17 -18 80 -61 209 -103 345 -114 89 -6 99 -16 62 -53 -30 -30 -63 -40
-135 -40 -61 0 -94 8 -250 64 -74 27 -100 19 -52 -16 28 -20 73 -86 64 -94 -8
-9 -68 25 -130 73 -32 25 -61 43 -64 40 -8 -9 87 -106 157 -159 35 -27 98 -66
139 -86 69 -34 82 -37 163 -37 48 0 88 -3 88 -7 0 -3 -13 -18 -30 -31 -41 -35
-126 -52 -198 -39 -132 24 -222 76 -407 237 -137 119 -168 133 -106 49 41 -56
127 -134 196 -178 75 -48 72 -45 55 -56 -22 -14 -70 -12 -126 5 -70 20 -217
115 -286 183 -32 31 -59 54 -61 51 -19 -20 -36 -73 -31 -94 8 -32 85 -103 121
-110 66 -15 114 -35 163 -69 29 -20 61 -36 71 -36 24 0 25 -29 3 -71 -8 -17
-14 -32 -12 -33 37 -29 105 -70 128 -78 47 -16 77 -2 116 52 l36 50 58 0 c81
0 92 -17 39 -59 -22 -18 -63 -40 -91 -49 -28 -9 -53 -23 -56 -29 -6 -20 23
-16 88 12 33 14 66 25 74 25 18 0 66 -61 66 -84 0 -13 -4 -15 -20 -6 -15 8
-21 6 -30 -10 -14 -25 -35 -25 -67 0 -26 20 -113 29 -113 12 0 -4 21 -28 46
-52 65 -64 68 -72 49 -131 -16 -46 -35 -66 -35 -35 0 8 -16 27 -35 42 -30 23
-35 32 -35 69 0 48 -30 95 -60 95 -24 0 -36 -22 -45 -84 -6 -41 -11 -50 -36
-59 -20 -8 -29 -18 -29 -34 0 -30 -25 -30 -44 -1 -8 13 -17 42 -21 65 -7 41
-6 42 37 64 66 33 98 59 98 77 0 17 -70 70 -122 93 -23 10 -30 8 -61 -15 -19
-15 -51 -30 -71 -33 -33 -5 -36 -4 -36 20 0 32 -36 151 -62 200 -25 51 -86
117 -107 117 -52 0 -89 -74 -70 -142 10 -40 25 -46 60 -28 15 8 19 7 19 -4 0
-28 -13 -47 -41 -62 -55 -28 -24 -94 45 -94 20 0 39 11 62 36 32 33 34 34 34
12 0 -41 -35 -85 -80 -100 l-42 -14 56 -52 c30 -28 64 -52 75 -52 13 0 31 15
48 41 l27 42 13 -31 c8 -20 9 -40 3 -61 -8 -29 -5 -35 28 -65 33 -31 36 -39
35 -82 -1 -27 -2 -68 -2 -90 -2 -55 -28 -79 -86 -79 -32 0 -50 6 -69 24 -32
30 -35 62 -6 54 29 -8 50 14 50 53 0 33 -21 64 -44 64 -7 0 -21 -9 -31 -20
-17 -18 -65 -29 -65 -14 0 4 9 22 21 40 l20 34 -26 48 c-14 26 -44 68 -65 92
l-39 45 -1 -43 c0 -54 23 -100 55 -108 45 -11 27 -58 -25 -66 -24 -3 -21 -7
40 -68 75 -75 98 -125 79 -179 -11 -31 -52 -61 -84 -61 -18 0 -18 1 -4 36 15
41 1 101 -33 140 -17 19 -34 34 -39 34 -13 0 -11 -127 2 -175 6 -22 22 -52 37
-67 26 -28 24 -33 -23 -40 -14 -2 -21 -14 -25 -38 -4 -19 -11 -44 -17 -54 -10
-19 -11 -19 -20 0 -6 10 -13 36 -17 57 -6 30 -11 37 -30 37 -35 0 -39 11 -11
40 28 29 45 101 45 186 0 58 -4 62 -37 39 -43 -30 -62 -116 -38 -178 11 -26
-38 -22 -72 7 -55 48 -29 142 65 230 l53 51 -32 5 c-21 3 -35 12 -40 27 -7 20
-3 26 30 43 21 10 41 26 45 35 9 23 8 105 -1 105 -14 -1 -92 -106 -108 -143
-15 -37 -9 -77 14 -92 19 -11 12 -25 -12 -25 -13 0 -32 9 -42 20 -10 11 -24
20 -31 20 -23 0 -44 -31 -44 -64 0 -39 21 -61 50 -53 40 10 15 -45 -32 -69
-62 -32 -136 7 -125 65 4 17 2 33 -3 36 -16 10 -11 85 7 115 9 16 26 34 38 40
19 10 21 17 16 44 -7 33 0 91 11 91 4 0 17 -16 30 -35 35 -52 58 -50 124 12
l56 52 -42 14 c-43 15 -80 59 -80 96 0 15 5 13 35 -13 44 -39 96 -42 119 -9
24 34 19 54 -19 77 -25 15 -35 27 -35 45 0 24 2 25 26 14 22 -11 28 -10 40 7
18 25 18 89 -1 125 -16 31 -44 45 -73 35 -45 -14 -136 -182 -150 -275 -8 -54
-8 -55 -41 -53 -20 1 -48 13 -70 31 l-37 29 -67 -43 c-37 -24 -70 -51 -74 -59
-8 -22 19 -48 77 -75 27 -13 52 -31 55 -40 8 -26 -28 -114 -48 -118 -12 -3
-17 3 -17 22 0 16 -6 26 -15 26 -25 0 -55 38 -55 70 0 60 -32 95 -66 72 -20
-13 -34 -50 -34 -87 0 -30 -8 -44 -45 -81 -38 -37 -47 -41 -51 -26 -3 9 -10
27 -15 40 -16 40 -11 52 46 111 30 32 55 61 55 64 0 16 -84 5 -120 -15 l-39
-23 -21 23 c-17 18 -25 21 -36 11 -28 -23 -15 29 15 63 l30 33 48 -18 c89 -34
113 -40 120 -33 11 11 -23 33 -63 41 -39 7 -124 64 -120 80 5 20 57 37 91 31
25 -5 47 -22 81 -61 32 -39 54 -55 71 -55 27 0 93 31 140 67 30 22 32 26 19
46 -8 12 -16 33 -18 46 -2 19 3 26 28 35 17 6 53 25 80 43 27 17 76 39 109 48
68 20 118 53 146 99 20 32 18 54 -8 94 l-14 23 -63 -59 c-117 -109 -272 -191
-361 -192 -77 0 -74 14 17 73 78 52 159 132 204 202 l19 30 -30 -19 c-16 -11
-76 -60 -133 -110 -121 -107 -196 -159 -272 -187 -105 -40 -216 -46 -275 -17
-24 13 -65 49 -65 58 0 4 42 6 93 6 102 -1 136 12 260 96 65 44 187 159 187
177 0 6 -28 -10 -62 -35 -70 -51 -117 -78 -125 -71 -7 8 15 45 54 88 31 34 33
39 15 39 -11 0 -71 -18 -132 -40 -169 -61 -287 -53 -326 21 l-15 29 48 0 c125
0 274 43 368 105 64 43 59 58 -8 26 -91 -44 -102 -20 -19 41 l57 43 -160 6
c-185 6 -236 18 -282 64 -53 53 -46 57 65 48 146 -12 299 -10 314 5 9 9 8 12
-10 12 -26 0 -72 20 -72 32 0 4 25 8 55 8 30 0 55 4 55 9 0 5 -30 16 -66 25
-127 32 -213 91 -265 180 -38 67 -38 89 -1 80 51 -12 87 -32 142 -78 70 -59
112 -78 179 -84 65 -6 62 7 -8 43 -61 30 -77 60 -28 50 17 -4 45 -14 60 -22
43 -21 56 -10 16 14 -56 35 -99 86 -106 126 -9 59 15 57 110 -6 81 -54 120
-77 131 -77 3 0 -3 15 -14 33 -25 41 -26 70 -2 65 9 -2 33 -30 52 -63 31 -52
35 -56 38 -34 2 14 -6 49 -17 78 -28 69 -27 95 5 120 26 20 104 30 104 14z"/>
</g>
</svg>
